<svg xmlns="http://www.w3.org/2000/svg" version="1.1" viewBox="27.334999999999997 79.2454054054054 563.64 86.27027027027027" style="max-height: 500px" width="563.64" height="86.27027027027027">
<path transform="translate(0,0)" fill="none" d="M0 0 C203.28 0 406.56 0 616 0 C616 75.24 616 150.48 616 228 C412.72 228 209.44 228 0 228 C0 152.76 0 77.52 0 0 Z"/>
<path transform="translate(86.973876953125,80.886474609375)" fill="#EFF6E0" d="M0 0 C0.96061844 0.00007553 1.92123688 0.00015106 2.91096497 0.00022888 C4.44716743 0.00797081 4.44716743 0.00797081 6.0144043 0.01586914 C7.07273972 0.01728409 8.13107513 0.01869904 9.22148132 0.02015686 C12.59389093 0.0257438 15.96623358 0.03829395 19.33862305 0.05102539 C21.62833563 0.05604208 23.91804925 0.06060469 26.20776367 0.06469727 C31.81390917 0.07570896 37.42000476 0.09296467 43.02612305 0.11352539 C43.02612305 4.40352539 43.02612305 8.69352539 43.02612305 13.11352539 C41.59413574 13.11763428 40.16214844 13.12174316 38.68676758 13.12597656 C33.33761355 13.14786558 27.98918488 13.20225712 22.64038086 13.26611328 C20.33218373 13.28920817 18.02388249 13.30366886 15.71557617 13.30908203 C12.38354242 13.31843359 9.05312712 13.35956208 5.72143555 13.40649414 C4.70123322 13.40256149 3.68103088 13.39862885 2.62991333 13.39457703 C-5.22249707 13.55192856 -11.88805765 15.46995271 -17.85543823 20.79142761 C-23.14968873 26.36452501 -26.16452523 32.92892385 -26.41137695 40.61352539 C-26.0012928 49.5359624 -23.49036776 55.60556606 -17.2746582 62.09399414 C-11.40523779 67.24593022 -5.34627469 69.91762338 2.51049805 69.47290039 C11.0216429 68.25702255 17.75407473 65.61385615 23.71362305 59.23852539 C27.75366794 53.77900527 29.50329512 48.94989962 30.21362305 42.23852539 C30.48174805 39.88727539 30.74987305 37.53602539 31.02612305 35.11352539 C21.45612305 35.11352539 11.88612305 35.11352539 2.02612305 35.11352539 C2.02612305 39.07352539 2.02612305 43.03352539 2.02612305 47.11352539 C7.63612305 47.11352539 13.24612305 47.11352539 19.02612305 47.11352539 C17.897173 52.75827565 17.897173 52.75827565 14.71362305 55.30102539 C14.11936523 55.78958008 13.52510742 56.27813477 12.9128418 56.78149414 C7.75292638 60.42441579 3.25865879 61.03062525 -2.97387695 60.11352539 C-9.04658609 57.60568305 -13.11265185 53.55679182 -16.22387695 47.80102539 C-18.0130507 41.38981948 -17.35661477 36.59434266 -14.1809082 30.87133789 C-11.60980597 27.12701424 -8.08984452 24.86736555 -3.97387695 23.11352539 C-1.70855713 22.87301636 -1.70855713 22.87301636 0.79467773 22.88647461 C2.20568756 22.8867012 2.20568756 22.8867012 3.64520264 22.88693237 C5.15633636 22.90241623 5.15633636 22.90241623 6.69799805 22.91821289 C8.25432953 22.92245773 8.25432953 22.92245773 9.84210205 22.92678833 C13.15356006 22.93797674 16.46474688 22.96307912 19.77612305 22.98852539 C22.02221289 22.99855691 24.26830697 23.00768246 26.5144043 23.01586914 C32.01840296 23.03791169 37.52224363 23.07137607 43.02612305 23.11352539 C43.0570413 25.95800451 43.08784982 28.80248375 43.11785889 31.64697266 C43.14231426 33.82794299 43.17265112 36.00884938 43.20629883 38.18969727 C43.26952411 50.27184525 40.26650309 61.8515689 31.83862305 70.98852539 C21.7992449 80.11320464 10.60759605 82.71563074 -2.4777832 82.42602539 C-14.04920835 81.84660915 -22.27588085 76.08363896 -30.16137695 68.05102539 C-38.58696381 58.04667965 -40.22454808 46.74747631 -39.2175293 34.10473633 C-38.66973206 29.62794849 -37.21603647 25.98825731 -34.97387695 22.11352539 C-34.56137695 21.34911133 -34.14887695 20.58469727 -33.72387695 19.79711914 C-28.37634167 10.81872893 -19.88161409 4.36708657 -9.97387695 1.11352539 C-6.58873702 0.33151402 -3.47114015 -0.00915868 0 0 Z"/>
<path transform="translate(358,100)" fill="#EFF6E0" d="M0 0 C20 0 20 0 28 4 C31.25864699 8.23624108 32.69820434 11.4313335 32.38671875 16.94140625 C31.69224927 20.63822861 30.39385439 24.07798863 28 27 C25.35546875 28.2265625 25.35546875 28.2265625 23 29 C27.85432021 35.31133269 27.85432021 35.31133269 32.9375 41.4375 C35 44 35 44 35 46 C31.36090742 46.99463268 28.61999482 47.14239517 25 46 C22.1901816 43.38045425 20.04235297 40.26196707 17.93237305 37.06787109 C17.50609619 36.4383252 17.07981934 35.8087793 16.640625 35.16015625 C16.27485352 34.57886963 15.90908203 33.99758301 15.53222656 33.39868164 C13.59231777 31.37335608 13.59231777 31.37335608 8 31 C8 35.95 8 40.9 8 46 C5.36 46 2.72 46 0 46 C0 30.82 0 15.64 0 0 Z"/>
<path transform="translate(177.9296875,99.70703125)" fill="#EFF6E0" d="M0 0 C1.93359375 0.01450195 1.93359375 0.01450195 3.90625 0.02929688 C5.25261036 0.05435687 6.59896453 0.07975163 7.9453125 0.10546875 C9.31508955 0.12053371 10.68488252 0.13421893 12.0546875 0.14648438 C15.39363608 0.18175496 18.73176925 0.23104979 22.0703125 0.29296875 C22.0703125 2.93296875 22.0703125 5.57296875 22.0703125 8.29296875 C21.28382324 8.30231445 20.49733398 8.31166016 19.68701172 8.32128906 C16.10582012 8.37514157 12.52591367 8.45876238 8.9453125 8.54296875 C7.7078125 8.55714844 6.4703125 8.57132813 5.1953125 8.5859375 C-3.69080776 8.73727261 -3.69080776 8.73727261 -10.9296875 13.29296875 C-14.19350887 17.07213034 -15.65097306 20.10987654 -15.38671875 25.19921875 C-14.4033092 29.70441124 -11.97000715 33.97125224 -8.06640625 36.5 C-3.18391694 38.31196587 2.29721301 38.08520469 7.0078125 35.98046875 C10.94003485 32.79975967 10.94003485 32.79975967 13.0703125 28.29296875 C8.4503125 28.29296875 3.8303125 28.29296875 -0.9296875 28.29296875 C-0.9296875 25.65296875 -0.9296875 23.01296875 -0.9296875 20.29296875 C6.9903125 20.29296875 14.9103125 20.29296875 23.0703125 20.29296875 C23.0703125 28.19672793 21.51432863 33.3043488 16.8203125 39.60546875 C11.46540423 44.83867456 7.03487794 46.53170583 -0.4921875 46.73046875 C-7.85314804 46.45878393 -12.19377345 45.10776492 -17.6796875 40.04296875 C-23.20648684 34.06905755 -24.56419258 28.30294855 -24.34375 20.296875 C-23.50474801 14.21015302 -20.55138136 9.47192213 -15.9921875 5.41796875 C-10.56151905 1.64974982 -6.67285451 -0.08857771 0 0 Z"/>
<path transform="translate(287,98)" fill="#EFF6E0" d="M0 0 C4.4543919 3.8180502 8.60776397 7.48690388 12.71484375 11.6171875 C13.21544815 12.11920685 13.71605255 12.6212262 14.23182678 13.13845825 C15.80278598 14.71493671 17.37019877 16.29488573 18.9375 17.875 C20.01343727 18.95596274 21.08960731 20.03669383 22.16601562 21.1171875 C24.78047583 23.74171106 27.39009258 26.37091775 30 29 C30.33 20.09 30.66 11.18 31 2 C33.97 2 36.94 2 40 2 C40 18.17 40 34.34 40 51 C35.5456081 47.1819498 31.39223603 43.51309612 27.28515625 39.3828125 C26.78455185 38.88079315 26.28394745 38.3787738 25.76817322 37.86154175 C24.19721402 36.28506329 22.62980123 34.70511427 21.0625 33.125 C19.98656273 32.04403726 18.91039269 30.96330617 17.83398438 29.8828125 C15.21952417 27.25828894 12.60990742 24.62908225 10 22 C9.67 30.58 9.34 39.16 9 48 C6.03 48 3.06 48 0 48 C0 32.16 0 16.32 0 0 Z"/>
<path transform="translate(420,100)" fill="#EFF6E0" d="M0 0 C10.23 0 20.46 0 31 0 C31 2.31 31 4.62 31 7 C23.74 7 16.48 7 9 7 C9 10.63 9 14.26 9 18 C14.94 18 20.88 18 27 18 C27 20.64 27 23.28 27 26 C21.06 26 15.12 26 9 26 C9 30.29 9 34.58 9 39 C16.26 39 23.52 39 31 39 C31 41.31 31 43.62 31 46 C20.77 46 10.54 46 0 46 C0 30.82 0 15.64 0 0 Z"/>
<path transform="translate(226,100)" fill="#EFF6E0" d="M0 0 C10.23 0 20.46 0 31 0 C31 2.31 31 4.62 31 7 C23.74 7 16.48 7 9 7 C9 10.63 9 14.26 9 18 C14.94 18 20.88 18 27 18 C27 20.64 27 23.28 27 26 C21.06 26 15.12 26 9 26 C9 30.29 9 34.58 9 39 C16.26 39 23.52 39 31 39 C31 41.31 31 43.62 31 46 C20.77 46 10.54 46 0 46 C0 30.82 0 15.64 0 0 Z"/>
<path transform="translate(550,100)" fill="#EFF6E0" d="M0 0 C10.23 0 20.46 0 31 0 C31 2.31 31 4.62 31 7 C23.74 7.33 16.48 7.66 9 8 C8.67 11.3 8.34 14.6 8 18 C14.27 18 20.54 18 27 18 C27 20.64 27 23.28 27 26 C20.73 26 14.46 26 8 26 C8 30.29 8 34.58 8 39 C15.59 39 23.18 39 31 39 C31 41.31 31 43.62 31 46 C20.77 46 10.54 46 0 46 C0 30.82 0 15.64 0 0 Z"/>
<path transform="translate(477,100)" fill="#EFF6E0" d="M0 0 C3.3 0 6.6 0 10 0 C14.29 9.24 18.58 18.48 23 28 C26.90670927 19.16042033 26.90670927 19.16042033 30.80834961 10.31860352 C31.29311768 9.22475342 31.77788574 8.13090332 32.27734375 7.00390625 C32.77484131 5.87799072 33.27233887 4.7520752 33.78491211 3.59204102 C35 1 35 1 36 0 C39.00003445 -0.14177857 41.99757235 -0.04228771 45 0 C43.11882679 5.99264387 40.92243152 11.70030652 38.27734375 17.39453125 C37.93119522 18.1491716 37.58504669 18.90381195 37.22840881 19.68132019 C36.13578439 22.06040759 35.03669047 24.43644036 33.9375 26.8125 C33.19685289 28.42363845 32.45661511 30.03496514 31.71679688 31.64648438 C25.95654962 44.17373536 25.95654962 44.17373536 24 48 C21.57001503 45.79228523 20.16739795 43.68738994 18.73168945 40.74389648 C18.31148026 39.88968613 17.89127106 39.03547577 17.45832825 38.15538025 C17.01446274 37.2365657 16.57059723 36.31775116 16.11328125 35.37109375 C15.65140915 34.42565201 15.18953705 33.48021027 14.71366882 32.50611877 C13.7399818 30.5095118 12.76933501 28.51141974 11.80151367 26.51196289 C10.31483049 23.44231192 8.81737092 20.37809945 7.31835938 17.31445312 C6.37435684 15.37531297 5.43097597 13.43587002 4.48828125 11.49609375 C4.03834305 10.57525497 3.58840485 9.6544162 3.12483215 8.70567322 C2.71407944 7.85461502 2.30332672 7.00355682 1.88012695 6.12670898 C1.51611282 5.37630844 1.15209869 4.6259079 0.77705383 3.85276794 C0 2 0 2 0 0 Z"/>
<path transform="translate(367,108)" fill="#01161E" d="M0 0 C10.08159393 -0.4800759 10.08159393 -0.4800759 13.75 1.4375 C15.68079062 5.39562078 15.3280582 8.85080043 14 13 C11.63257317 15.44140892 10.02719549 15.92773499 6.66796875 16.1640625 C4.44473906 16.18506939 2.2211035 16.0994524 0 16 C0 10.72 0 5.44 0 0 Z"/>
</svg>
